<svg xmlns="http://www.w3.org/2000/svg" xmlns:xlink="http://www.w3.org/1999/xlink" width="960" zoomAndPan="magnify" viewBox="0 0 720 719.999996" height="960" preserveAspectRatio="xMidYMid meet" version="1.0"><defs><g/></defs><g fill="#292929" fill-opacity="1"><g transform="translate(146.694084, 370.985582)"><g><path d="M 5.65625 0 L 5.65625 -1.703125 C 5.90625 -1.703125 6.28125 -1.890625 6.78125 -2.265625 C 7.289062 -2.640625 7.765625 -3.328125 8.203125 -4.328125 C 8.640625 -5.335938 9.046875 -6.816406 9.421875 -8.765625 C 9.796875 -10.710938 9.984375 -13.195312 9.984375 -16.21875 L 9.984375 -116.109375 C 9.984375 -119.253906 9.796875 -121.769531 9.421875 -123.65625 C 9.046875 -125.539062 8.640625 -126.984375 8.203125 -127.984375 C 7.765625 -128.992188 7.289062 -129.6875 6.78125 -130.0625 C 6.28125 -130.4375 5.90625 -130.625 5.65625 -130.625 L 5.65625 -132.328125 L 7.34375 -132.328125 C 13 -132.453125 18.875 -132.828125 24.96875 -133.453125 C 31.070312 -134.085938 36.820312 -134.40625 42.21875 -134.40625 C 51.769531 -134.40625 59.8125 -133.617188 66.34375 -132.046875 C 72.882812 -130.472656 78.164062 -128.300781 82.1875 -125.53125 C 86.207031 -122.769531 89.097656 -119.472656 90.859375 -115.640625 C 92.617188 -111.804688 93.5 -107.628906 93.5 -103.109375 C 93.5 -99.210938 92.867188 -95.597656 91.609375 -92.265625 C 90.347656 -88.941406 88.304688 -85.957031 85.484375 -83.3125 C 82.660156 -80.675781 78.953125 -78.445312 74.359375 -76.625 C 69.773438 -74.800781 64.15625 -73.515625 57.5 -72.765625 C 64.15625 -72.003906 70.375 -70.710938 76.15625 -68.890625 C 81.9375 -67.066406 86.929688 -64.644531 91.140625 -61.625 C 95.347656 -58.613281 98.675781 -55.035156 101.125 -50.890625 C 103.582031 -46.742188 104.8125 -41.96875 104.8125 -36.5625 C 104.8125 -29.15625 103.113281 -23.09375 99.71875 -18.375 C 96.320312 -13.664062 91.765625 -9.957031 86.046875 -7.25 C 80.328125 -4.550781 73.695312 -2.664062 66.15625 -1.59375 C 58.625 -0.53125 50.644531 0 42.21875 0 Z M 91.421875 -36.5625 C 91.421875 -42.21875 90.351562 -47.023438 88.21875 -50.984375 C 86.082031 -54.941406 83.410156 -58.207031 80.203125 -60.78125 C 77.003906 -63.363281 73.425781 -65.40625 69.46875 -66.90625 C 65.507812 -68.414062 61.738281 -69.546875 58.15625 -70.296875 C 54.570312 -71.054688 51.394531 -71.53125 48.625 -71.71875 C 45.863281 -71.90625 43.984375 -72 42.984375 -72 L 23.375 -72 L 23.375 -1.703125 L 42.21875 -1.703125 C 51.394531 -1.828125 59.566406 -3.082031 66.734375 -5.46875 C 69.742188 -6.46875 72.722656 -7.816406 75.671875 -9.515625 C 78.628906 -11.210938 81.269531 -13.285156 83.59375 -15.734375 C 85.925781 -18.191406 87.8125 -21.144531 89.25 -24.59375 C 90.695312 -28.050781 91.421875 -32.039062 91.421875 -36.5625 Z M 42.21875 -73.703125 L 42.21875 -73.515625 C 46.363281 -73.515625 50.664062 -73.953125 55.125 -74.828125 C 59.59375 -75.710938 63.679688 -77.285156 67.390625 -79.546875 C 71.097656 -81.804688 74.175781 -84.851562 76.625 -88.6875 C 79.070312 -92.519531 80.296875 -97.328125 80.296875 -103.109375 C 80.296875 -108.890625 79.070312 -113.695312 76.625 -117.53125 C 74.175781 -121.363281 71.097656 -124.410156 67.390625 -126.671875 C 63.679688 -128.929688 59.59375 -130.53125 55.125 -131.46875 C 50.664062 -132.414062 46.363281 -132.890625 42.21875 -132.890625 C 39.332031 -132.890625 36.285156 -132.765625 33.078125 -132.515625 C 29.878906 -132.265625 26.644531 -132.015625 23.375 -131.765625 L 23.375 -73.703125 Z M 42.21875 -73.703125 "/></g></g></g><g fill="#292929" fill-opacity="1"><g transform="translate(253.94034, 370.985582)"><g><path d="M 26.765625 0 L 4.90625 0 L 4.90625 -1.703125 C 5.15625 -1.703125 5.53125 -1.859375 6.03125 -2.171875 C 6.53125 -2.484375 7 -3.171875 7.4375 -4.234375 C 7.882812 -5.304688 8.296875 -6.785156 8.671875 -8.671875 C 9.046875 -10.554688 9.234375 -13.070312 9.234375 -16.21875 L 9.234375 -119.890625 C 8.734375 -123.148438 8.070312 -125.28125 7.25 -126.28125 C 6.4375 -127.289062 5.78125 -127.796875 5.28125 -127.796875 L 4.71875 -129.5 L 22.4375 -136.09375 L 22.4375 -16.21875 C 22.4375 -13.070312 22.59375 -10.554688 22.90625 -8.671875 C 23.21875 -6.785156 23.625 -5.304688 24.125 -4.234375 C 24.625 -3.171875 25.125 -2.484375 25.625 -2.171875 C 26.132812 -1.859375 26.515625 -1.703125 26.765625 -1.703125 Z M 26.765625 0 "/></g></g></g><g fill="#292929" fill-opacity="1"><g transform="translate(282.212456, 370.985582)"><g><path d="M 6.40625 -34.5 C 4.769531 -40.65625 4.390625 -46.75 5.265625 -52.78125 C 6.148438 -58.8125 8.066406 -64.367188 11.015625 -69.453125 C 13.972656 -74.546875 17.835938 -78.976562 22.609375 -82.75 C 27.390625 -86.519531 32.859375 -89.222656 39.015625 -90.859375 C 45.171875 -92.492188 51.265625 -92.867188 57.296875 -91.984375 C 63.335938 -91.109375 68.929688 -89.191406 74.078125 -86.234375 C 79.234375 -83.285156 83.695312 -79.421875 87.46875 -74.640625 C 91.238281 -69.867188 93.9375 -64.40625 95.5625 -58.25 C 97.195312 -52.09375 97.570312 -45.992188 96.6875 -39.953125 C 95.8125 -33.921875 93.894531 -28.359375 90.9375 -23.265625 C 87.988281 -18.179688 84.128906 -13.753906 79.359375 -9.984375 C 74.585938 -6.210938 69.117188 -3.515625 62.953125 -1.890625 C 56.796875 -0.253906 50.703125 0.125 44.671875 -0.75 C 38.640625 -1.632812 33.046875 -3.550781 27.890625 -6.5 C 22.742188 -9.457031 18.285156 -13.320312 14.515625 -18.09375 C 10.742188 -22.875 8.039062 -28.34375 6.40625 -34.5 Z M 82.75 -54.859375 C 81.488281 -59.378906 79.539062 -63.992188 76.90625 -68.703125 C 74.269531 -73.421875 71.066406 -77.566406 67.296875 -81.140625 C 63.523438 -84.722656 59.25 -87.363281 54.46875 -89.0625 C 49.695312 -90.757812 44.671875 -90.914062 39.390625 -89.53125 C 34.117188 -88.15625 29.878906 -85.550781 26.671875 -81.71875 C 23.460938 -77.882812 21.101562 -73.484375 19.59375 -68.515625 C 18.09375 -63.554688 17.34375 -58.34375 17.34375 -52.875 C 17.34375 -47.40625 17.972656 -42.410156 19.234375 -37.890625 C 20.484375 -33.367188 22.425781 -28.71875 25.0625 -23.9375 C 27.707031 -19.164062 30.914062 -15.019531 34.6875 -11.5 C 38.457031 -7.976562 42.726562 -5.335938 47.5 -3.578125 C 52.28125 -1.816406 57.304688 -1.691406 62.578125 -3.203125 C 67.859375 -4.585938 72.128906 -7.195312 75.390625 -11.03125 C 78.660156 -14.863281 81.050781 -19.257812 82.5625 -24.21875 C 84.070312 -29.1875 84.796875 -34.398438 84.734375 -39.859375 C 84.671875 -45.328125 84.007812 -50.328125 82.75 -54.859375 Z M 82.75 -54.859375 "/></g></g></g><g fill="#292929" fill-opacity="1"><g transform="translate(380.976992, 370.985582)"><g><path d="M 6.40625 -34.5 C 4.769531 -40.65625 4.390625 -46.75 5.265625 -52.78125 C 6.148438 -58.8125 8.066406 -64.398438 11.015625 -69.546875 C 13.972656 -74.703125 17.835938 -79.164062 22.609375 -82.9375 C 27.390625 -86.707031 32.859375 -89.410156 39.015625 -91.046875 C 45.296875 -92.804688 51.421875 -93.210938 57.390625 -92.265625 C 63.367188 -91.328125 68.929688 -89.410156 74.078125 -86.515625 L 80.296875 -88.21875 C 85.953125 -89.726562 90.285156 -91.203125 93.296875 -92.640625 C 96.316406 -94.085938 98.488281 -95.40625 99.8125 -96.59375 C 101.132812 -97.789062 101.859375 -98.765625 101.984375 -99.515625 C 102.109375 -100.273438 102.171875 -100.71875 102.171875 -100.84375 L 102.171875 -101.03125 L 103.859375 -101.40625 L 105.5625 -94.4375 L 105.9375 -92.734375 L 107.640625 -85.765625 L 105.9375 -85.390625 C 105.0625 -86.523438 103.679688 -87.34375 101.796875 -87.84375 C 100.160156 -88.34375 97.925781 -88.625 95.09375 -88.6875 C 92.269531 -88.75 88.597656 -88.28125 84.078125 -87.28125 L 76.15625 -85.390625 C 80.800781 -82.367188 84.820312 -78.566406 88.21875 -73.984375 C 91.613281 -69.398438 94.128906 -64.21875 95.765625 -58.4375 C 97.390625 -52.53125 97.796875 -46.65625 96.984375 -40.8125 C 96.171875 -34.96875 94.410156 -29.53125 91.703125 -24.5 C 89.003906 -19.476562 85.421875 -15.050781 80.953125 -11.21875 C 76.492188 -7.382812 71.375 -4.523438 65.59375 -2.640625 C 63.082031 -1.628906 60.160156 -0.875 56.828125 -0.375 C 53.503906 0.125 50.082031 0.625 46.5625 1.125 C 43.039062 1.632812 39.550781 2.171875 36.09375 2.734375 C 32.632812 3.296875 29.617188 4.140625 27.046875 5.265625 C 24.472656 6.398438 22.492188 7.941406 21.109375 9.890625 C 19.722656 11.835938 19.222656 14.320312 19.609375 17.34375 C 20.109375 20.863281 21.550781 23.15625 23.9375 24.21875 C 26.320312 25.289062 29.179688 25.601562 32.515625 25.15625 C 35.847656 24.71875 39.460938 23.742188 43.359375 22.234375 C 47.253906 20.734375 50.988281 19.070312 54.5625 17.25 C 58.144531 15.425781 61.378906 13.664062 64.265625 11.96875 C 67.160156 10.269531 69.175781 9.046875 70.3125 8.296875 C 74.332031 5.785156 78.382812 3.488281 82.46875 1.40625 C 86.550781 -0.664062 90.226562 -1.890625 93.5 -2.265625 C 97.769531 -2.765625 100.972656 -1.726562 103.109375 0.84375 C 105.242188 3.425781 106.34375 6.597656 106.40625 10.359375 C 106.46875 14.128906 105.460938 17.898438 103.390625 21.671875 C 101.316406 25.441406 98.332031 28.269531 94.4375 30.15625 C 91.425781 31.539062 88.222656 32.234375 84.828125 32.234375 C 81.429688 32.234375 78.035156 31.726562 74.640625 30.71875 C 71.253906 29.71875 67.988281 28.304688 64.84375 26.484375 C 61.695312 24.660156 58.992188 22.617188 56.734375 20.359375 L 57.6875 19.421875 C 63.59375 24.066406 69.117188 27.269531 74.265625 29.03125 C 79.421875 30.789062 83.820312 30.601562 87.46875 28.46875 C 89.351562 27.332031 91.015625 25.632812 92.453125 23.375 C 93.898438 21.113281 94.96875 18.691406 95.65625 16.109375 C 96.351562 13.535156 96.507812 11.117188 96.125 8.859375 C 95.75 6.597656 94.648438 4.960938 92.828125 3.953125 C 91.015625 2.953125 88.347656 2.765625 84.828125 3.390625 C 81.304688 4.015625 76.71875 6.023438 71.0625 9.421875 C 69.050781 10.679688 66.285156 12.410156 62.765625 14.609375 C 59.253906 16.804688 55.359375 19.035156 51.078125 21.296875 C 46.804688 23.554688 42.441406 25.566406 37.984375 27.328125 C 33.523438 29.085938 29.378906 30.09375 25.546875 30.34375 C 21.710938 30.59375 18.378906 29.898438 15.546875 28.265625 C 12.722656 26.640625 10.867188 23.5625 9.984375 19.03125 C 9.234375 14.757812 10.207031 11.429688 12.90625 9.046875 C 15.613281 6.660156 19.007812 4.804688 23.09375 3.484375 C 27.175781 2.171875 31.445312 1.289062 35.90625 0.84375 C 40.363281 0.40625 44.101562 0 47.125 -0.375 C 42.351562 -0.75 37.796875 -1.847656 33.453125 -3.671875 C 29.117188 -5.492188 25.160156 -7.878906 21.578125 -10.828125 C 18.003906 -13.785156 14.894531 -17.273438 12.25 -21.296875 C 9.613281 -25.316406 7.664062 -29.71875 6.40625 -34.5 Z M 82.9375 -55.046875 C 81.6875 -59.566406 79.707031 -64.210938 77 -68.984375 C 74.300781 -73.765625 71.066406 -77.910156 67.296875 -81.421875 C 63.523438 -84.941406 59.25 -87.582031 54.46875 -89.34375 C 49.695312 -91.101562 44.671875 -91.226562 39.390625 -89.71875 C 34.117188 -88.34375 29.847656 -85.707031 26.578125 -81.8125 C 23.304688 -77.914062 20.914062 -73.484375 19.40625 -68.515625 C 17.90625 -63.554688 17.1875 -58.34375 17.25 -52.875 C 17.3125 -47.40625 17.972656 -42.410156 19.234375 -37.890625 C 20.484375 -33.367188 22.425781 -28.71875 25.0625 -23.9375 C 27.707031 -19.164062 30.914062 -15.019531 34.6875 -11.5 C 38.457031 -7.976562 42.726562 -5.335938 47.5 -3.578125 C 52.28125 -1.816406 57.304688 -1.691406 62.578125 -3.203125 C 67.859375 -4.585938 72.128906 -7.226562 75.390625 -11.125 C 78.660156 -15.019531 81.050781 -19.445312 82.5625 -24.40625 C 84.070312 -29.375 84.828125 -34.585938 84.828125 -40.046875 C 84.828125 -45.515625 84.195312 -50.515625 82.9375 -55.046875 Z M 82.9375 -55.046875 "/></g></g></g><g fill="#292929" fill-opacity="1"><g transform="translate(490.108096, 370.985582)"><g><path d="M 23.75 6.03125 C 22.363281 7.039062 21.671875 8.171875 21.671875 9.421875 C 21.671875 10.679688 21.925781 11.8125 22.4375 12.8125 C 24.0625 16.207031 26.066406 19.253906 28.453125 21.953125 C 30.847656 24.660156 33.363281 26.421875 36 27.234375 C 38.644531 28.054688 41.222656 27.554688 43.734375 25.734375 C 46.242188 23.910156 48.566406 20.109375 50.703125 14.328125 L 55.984375 0 L 55.421875 0 L 19.984375 -81.8125 C 18.847656 -84.320312 17.773438 -86.171875 16.765625 -87.359375 C 15.765625 -88.554688 14.445312 -89.15625 12.8125 -89.15625 L 12.8125 -90.859375 L 36.75 -90.859375 L 36.75 -89.15625 C 33.238281 -89.15625 32.488281 -86.894531 34.5 -82.375 L 62.578125 -17.34375 L 86.140625 -79.921875 C 86.898438 -82.054688 87.117188 -83.71875 86.796875 -84.90625 C 86.484375 -86.101562 86.015625 -87.019531 85.390625 -87.65625 C 84.640625 -88.40625 83.632812 -88.90625 82.375 -89.15625 L 82.375 -90.859375 L 98.390625 -90.859375 L 98.390625 -89.15625 C 96.253906 -89.15625 94.148438 -88.273438 92.078125 -86.515625 C 90.003906 -84.753906 88.46875 -82.429688 87.46875 -79.546875 L 52.03125 14.703125 C 49.507812 21.742188 46.519531 27.082031 43.0625 30.71875 C 39.613281 34.363281 35.878906 36.375 31.859375 36.75 C 27.835938 37.132812 23.59375 35.910156 19.125 33.078125 C 14.664062 30.253906 10.238281 25.953125 5.84375 20.171875 L 4.71875 18.84375 L 22.625 4.71875 Z M 23.75 6.03125 "/></g></g></g><g fill="#292929" fill-opacity="1"><g transform="translate(315.12466, 391.306323)"><g><path d="M 7.265625 -1.390625 C 7.472656 -1.390625 7.644531 -1.316406 7.78125 -1.171875 C 7.925781 -1.035156 8 -0.875 8 -0.6875 C 8 -0.476562 7.925781 -0.3125 7.78125 -0.1875 C 7.644531 -0.0625 7.472656 0 7.265625 0 L 1.984375 0 C 1.785156 0 1.613281 -0.0664062 1.46875 -0.203125 C 1.332031 -0.347656 1.265625 -0.523438 1.265625 -0.734375 L 1.265625 -9.890625 C 1.265625 -10.097656 1.332031 -10.269531 1.46875 -10.40625 C 1.613281 -10.550781 1.785156 -10.625 1.984375 -10.625 L 7.265625 -10.625 C 7.472656 -10.625 7.644531 -10.554688 7.78125 -10.421875 C 7.925781 -10.285156 8 -10.113281 8 -9.90625 C 8 -9.707031 7.925781 -9.539062 7.78125 -9.40625 C 7.644531 -9.28125 7.472656 -9.21875 7.265625 -9.21875 L 2.765625 -9.21875 L 2.765625 -6.125 L 6.578125 -6.125 C 6.796875 -6.125 6.972656 -6.054688 7.109375 -5.921875 C 7.242188 -5.796875 7.3125 -5.632812 7.3125 -5.4375 C 7.3125 -5.21875 7.242188 -5.046875 7.109375 -4.921875 C 6.972656 -4.804688 6.796875 -4.75 6.578125 -4.75 L 2.765625 -4.75 L 2.765625 -1.390625 Z M 7.265625 -1.390625 "/></g></g></g><g fill="#292929" fill-opacity="1"><g transform="translate(323.775479, 391.306323)"><g><path d="M 4.46875 0.15625 C 3.738281 0.15625 3.085938 0.0507812 2.515625 -0.15625 C 1.953125 -0.363281 1.410156 -0.703125 0.890625 -1.171875 C 0.679688 -1.347656 0.578125 -1.554688 0.578125 -1.796875 C 0.578125 -1.972656 0.644531 -2.132812 0.78125 -2.28125 C 0.925781 -2.425781 1.097656 -2.5 1.296875 -2.5 C 1.460938 -2.5 1.609375 -2.445312 1.734375 -2.34375 C 2.140625 -1.96875 2.554688 -1.691406 2.984375 -1.515625 C 3.410156 -1.335938 3.898438 -1.25 4.453125 -1.25 C 5.085938 -1.25 5.625 -1.394531 6.0625 -1.6875 C 6.5 -1.976562 6.71875 -2.347656 6.71875 -2.796875 C 6.707031 -3.316406 6.488281 -3.722656 6.0625 -4.015625 C 5.632812 -4.304688 4.976562 -4.546875 4.09375 -4.734375 C 3.050781 -4.941406 2.25 -5.289062 1.6875 -5.78125 C 1.125 -6.269531 0.84375 -6.941406 0.84375 -7.796875 C 0.84375 -8.390625 1 -8.910156 1.3125 -9.359375 C 1.632812 -9.816406 2.070312 -10.164062 2.625 -10.40625 C 3.175781 -10.644531 3.800781 -10.765625 4.5 -10.765625 C 5.132812 -10.765625 5.726562 -10.664062 6.28125 -10.46875 C 6.832031 -10.269531 7.28125 -10.003906 7.625 -9.671875 C 7.863281 -9.460938 7.984375 -9.242188 7.984375 -9.015625 C 7.984375 -8.828125 7.914062 -8.660156 7.78125 -8.515625 C 7.644531 -8.378906 7.476562 -8.3125 7.28125 -8.3125 C 7.132812 -8.3125 7.019531 -8.351562 6.9375 -8.4375 C 6.664062 -8.695312 6.296875 -8.914062 5.828125 -9.09375 C 5.367188 -9.28125 4.925781 -9.375 4.5 -9.375 C 3.820312 -9.375 3.285156 -9.234375 2.890625 -8.953125 C 2.492188 -8.679688 2.296875 -8.316406 2.296875 -7.859375 C 2.296875 -7.359375 2.492188 -6.976562 2.890625 -6.71875 C 3.285156 -6.457031 3.878906 -6.234375 4.671875 -6.046875 C 5.460938 -5.878906 6.109375 -5.675781 6.609375 -5.4375 C 7.109375 -5.207031 7.492188 -4.882812 7.765625 -4.46875 C 8.035156 -4.0625 8.171875 -3.523438 8.171875 -2.859375 C 8.171875 -2.265625 8.003906 -1.738281 7.671875 -1.28125 C 7.347656 -0.832031 6.898438 -0.476562 6.328125 -0.21875 C 5.765625 0.03125 5.144531 0.15625 4.46875 0.15625 Z M 4.46875 0.15625 "/></g></g></g><g fill="#292929" fill-opacity="1"><g transform="translate(332.608434, 391.306323)"><g><path d="M 8.140625 -10.625 C 8.359375 -10.625 8.535156 -10.554688 8.671875 -10.421875 C 8.804688 -10.296875 8.875 -10.128906 8.875 -9.921875 C 8.875 -9.710938 8.804688 -9.546875 8.671875 -9.421875 C 8.535156 -9.296875 8.359375 -9.234375 8.140625 -9.234375 L 5.453125 -9.234375 L 5.453125 -0.734375 C 5.453125 -0.523438 5.375 -0.347656 5.21875 -0.203125 C 5.070312 -0.0664062 4.890625 0 4.671875 0 C 4.453125 0 4.269531 -0.0664062 4.125 -0.203125 C 3.976562 -0.347656 3.90625 -0.523438 3.90625 -0.734375 L 3.90625 -9.234375 L 1.21875 -9.234375 C 1 -9.234375 0.820312 -9.296875 0.6875 -9.421875 C 0.550781 -9.554688 0.484375 -9.726562 0.484375 -9.9375 C 0.484375 -10.132812 0.550781 -10.296875 0.6875 -10.421875 C 0.820312 -10.554688 1 -10.625 1.21875 -10.625 Z M 8.140625 -10.625 "/></g></g></g><g fill="#292929" fill-opacity="1"><g transform="translate(341.972574, 391.306323)"><g><path d="M 5.71875 -10.625 C 6.664062 -10.625 7.476562 -10.382812 8.15625 -9.90625 C 8.832031 -9.425781 9.34375 -8.785156 9.6875 -7.984375 C 10.03125 -7.179688 10.203125 -6.289062 10.203125 -5.3125 C 10.203125 -4.320312 10.03125 -3.421875 9.6875 -2.609375 C 9.34375 -1.804688 8.832031 -1.171875 8.15625 -0.703125 C 7.476562 -0.234375 6.664062 0 5.71875 0 L 1.984375 0 C 1.785156 0 1.613281 -0.0664062 1.46875 -0.203125 C 1.332031 -0.347656 1.265625 -0.523438 1.265625 -0.734375 L 1.265625 -9.890625 C 1.265625 -10.097656 1.332031 -10.269531 1.46875 -10.40625 C 1.613281 -10.550781 1.785156 -10.625 1.984375 -10.625 Z M 5.5625 -1.390625 C 6.59375 -1.390625 7.363281 -1.753906 7.875 -2.484375 C 8.394531 -3.222656 8.65625 -4.164062 8.65625 -5.3125 C 8.65625 -6.445312 8.394531 -7.378906 7.875 -8.109375 C 7.351562 -8.847656 6.582031 -9.21875 5.5625 -9.21875 L 2.765625 -9.21875 L 2.765625 -1.390625 Z M 5.5625 -1.390625 "/></g></g></g><g fill="#292929" fill-opacity="1"><g transform="translate(317.120565, 406.483104)"><g><path d="M 7.09375 -1.328125 C 7.289062 -1.328125 7.453125 -1.257812 7.578125 -1.125 C 7.710938 -1 7.78125 -0.84375 7.78125 -0.65625 C 7.78125 -0.457031 7.710938 -0.296875 7.578125 -0.171875 C 7.453125 -0.0546875 7.289062 0 7.09375 0 L 1.71875 0 C 1.507812 0 1.335938 -0.0625 1.203125 -0.1875 C 1.078125 -0.3125 1.015625 -0.484375 1.015625 -0.703125 C 1.015625 -0.878906 1.085938 -1.050781 1.234375 -1.21875 L 4.609375 -4.890625 C 5.546875 -5.890625 6.015625 -6.773438 6.015625 -7.546875 C 6.015625 -8.085938 5.835938 -8.535156 5.484375 -8.890625 C 5.128906 -9.253906 4.671875 -9.4375 4.109375 -9.4375 C 3.734375 -9.4375 3.375 -9.328125 3.03125 -9.109375 C 2.6875 -8.898438 2.410156 -8.597656 2.203125 -8.203125 C 2.035156 -7.992188 1.84375 -7.890625 1.625 -7.890625 C 1.445312 -7.890625 1.28125 -7.953125 1.125 -8.078125 C 0.976562 -8.210938 0.90625 -8.367188 0.90625 -8.546875 C 0.90625 -8.648438 0.941406 -8.765625 1.015625 -8.890625 C 1.097656 -9.015625 1.207031 -9.15625 1.34375 -9.3125 C 1.675781 -9.757812 2.101562 -10.113281 2.625 -10.375 C 3.144531 -10.632812 3.664062 -10.765625 4.1875 -10.765625 C 4.863281 -10.765625 5.445312 -10.628906 5.9375 -10.359375 C 6.4375 -10.085938 6.820312 -9.710938 7.09375 -9.234375 C 7.363281 -8.765625 7.5 -8.21875 7.5 -7.59375 C 7.5 -6.4375 6.867188 -5.1875 5.609375 -3.84375 L 3.328125 -1.328125 Z M 7.09375 -1.328125 "/></g></g></g><g fill="#292929" fill-opacity="1"><g transform="translate(325.452672, 406.483104)"><g><path d="M 4.59375 0.15625 C 3.769531 0.15625 3.0625 -0.078125 2.46875 -0.546875 C 1.882812 -1.015625 1.441406 -1.65625 1.140625 -2.46875 C 0.847656 -3.289062 0.703125 -4.238281 0.703125 -5.3125 C 0.703125 -6.382812 0.847656 -7.328125 1.140625 -8.140625 C 1.441406 -8.960938 1.882812 -9.601562 2.46875 -10.0625 C 3.0625 -10.53125 3.769531 -10.765625 4.59375 -10.765625 C 5.425781 -10.765625 6.132812 -10.53125 6.71875 -10.0625 C 7.300781 -9.601562 7.742188 -8.960938 8.046875 -8.140625 C 8.347656 -7.328125 8.5 -6.382812 8.5 -5.3125 C 8.5 -4.238281 8.347656 -3.289062 8.046875 -2.46875 C 7.742188 -1.65625 7.300781 -1.015625 6.71875 -0.546875 C 6.132812 -0.078125 5.425781 0.15625 4.59375 0.15625 Z M 4.59375 -1.3125 C 5.332031 -1.3125 5.90625 -1.660156 6.3125 -2.359375 C 6.726562 -3.054688 6.9375 -4.039062 6.9375 -5.3125 C 6.9375 -6.582031 6.726562 -7.566406 6.3125 -8.265625 C 5.90625 -8.960938 5.332031 -9.3125 4.59375 -9.3125 C 3.851562 -9.3125 3.28125 -8.960938 2.875 -8.265625 C 2.46875 -7.566406 2.265625 -6.582031 2.265625 -5.3125 C 2.265625 -4.039062 2.46875 -3.054688 2.875 -2.359375 C 3.28125 -1.660156 3.851562 -1.3125 4.59375 -1.3125 Z M 4.59375 -1.3125 "/></g></g></g><g fill="#292929" fill-opacity="1"><g transform="translate(334.649863, 406.483104)"><g><path d="M 7.09375 -1.328125 C 7.289062 -1.328125 7.453125 -1.257812 7.578125 -1.125 C 7.710938 -1 7.78125 -0.84375 7.78125 -0.65625 C 7.78125 -0.457031 7.710938 -0.296875 7.578125 -0.171875 C 7.453125 -0.0546875 7.289062 0 7.09375 0 L 1.71875 0 C 1.507812 0 1.335938 -0.0625 1.203125 -0.1875 C 1.078125 -0.3125 1.015625 -0.484375 1.015625 -0.703125 C 1.015625 -0.878906 1.085938 -1.050781 1.234375 -1.21875 L 4.609375 -4.890625 C 5.546875 -5.890625 6.015625 -6.773438 6.015625 -7.546875 C 6.015625 -8.085938 5.835938 -8.535156 5.484375 -8.890625 C 5.128906 -9.253906 4.671875 -9.4375 4.109375 -9.4375 C 3.734375 -9.4375 3.375 -9.328125 3.03125 -9.109375 C 2.6875 -8.898438 2.410156 -8.597656 2.203125 -8.203125 C 2.035156 -7.992188 1.84375 -7.890625 1.625 -7.890625 C 1.445312 -7.890625 1.28125 -7.953125 1.125 -8.078125 C 0.976562 -8.210938 0.90625 -8.367188 0.90625 -8.546875 C 0.90625 -8.648438 0.941406 -8.765625 1.015625 -8.890625 C 1.097656 -9.015625 1.207031 -9.15625 1.34375 -9.3125 C 1.675781 -9.757812 2.101562 -10.113281 2.625 -10.375 C 3.144531 -10.632812 3.664062 -10.765625 4.1875 -10.765625 C 4.863281 -10.765625 5.445312 -10.628906 5.9375 -10.359375 C 6.4375 -10.085938 6.820312 -9.710938 7.09375 -9.234375 C 7.363281 -8.765625 7.5 -8.21875 7.5 -7.59375 C 7.5 -6.4375 6.867188 -5.1875 5.609375 -3.84375 L 3.328125 -1.328125 Z M 7.09375 -1.328125 "/></g></g></g><g fill="#292929" fill-opacity="1"><g transform="translate(342.981971, 406.483104)"><g><path d="M 4.171875 -6.71875 C 4.742188 -6.71875 5.257812 -6.570312 5.71875 -6.28125 C 6.1875 -6 6.550781 -5.609375 6.8125 -5.109375 C 7.070312 -4.617188 7.203125 -4.0625 7.203125 -3.4375 C 7.203125 -2.71875 7.035156 -2.085938 6.703125 -1.546875 C 6.367188 -1.003906 5.910156 -0.582031 5.328125 -0.28125 C 4.742188 0.0078125 4.070312 0.15625 3.3125 0.15625 C 2.90625 0.15625 2.507812 0.0976562 2.125 -0.015625 C 1.75 -0.128906 1.425781 -0.289062 1.15625 -0.5 C 0.882812 -0.65625 0.75 -0.863281 0.75 -1.125 C 0.75 -1.3125 0.816406 -1.484375 0.953125 -1.640625 C 1.085938 -1.804688 1.25 -1.890625 1.4375 -1.890625 C 1.625 -1.890625 1.804688 -1.828125 1.984375 -1.703125 C 2.398438 -1.316406 2.921875 -1.125 3.546875 -1.125 C 3.941406 -1.125 4.304688 -1.210938 4.640625 -1.390625 C 4.984375 -1.578125 5.253906 -1.835938 5.453125 -2.171875 C 5.660156 -2.515625 5.765625 -2.910156 5.765625 -3.359375 C 5.765625 -4.015625 5.5625 -4.519531 5.15625 -4.875 C 4.75 -5.226562 4.265625 -5.40625 3.703125 -5.40625 C 3.535156 -5.40625 3.300781 -5.367188 3 -5.296875 C 2.78125 -5.234375 2.613281 -5.203125 2.5 -5.203125 C 2.320312 -5.203125 2.175781 -5.265625 2.0625 -5.390625 C 1.945312 -5.515625 1.890625 -5.675781 1.890625 -5.875 C 1.890625 -5.976562 1.910156 -6.070312 1.953125 -6.15625 C 1.992188 -6.238281 2.0625 -6.335938 2.15625 -6.453125 L 4.734375 -9.28125 L 1.234375 -9.28125 C 1.035156 -9.28125 0.867188 -9.34375 0.734375 -9.46875 C 0.609375 -9.601562 0.546875 -9.769531 0.546875 -9.96875 C 0.546875 -10.15625 0.609375 -10.3125 0.734375 -10.4375 C 0.867188 -10.5625 1.035156 -10.625 1.234375 -10.625 L 6.0625 -10.625 C 6.300781 -10.625 6.484375 -10.550781 6.609375 -10.40625 C 6.742188 -10.269531 6.8125 -10.097656 6.8125 -9.890625 C 6.8125 -9.710938 6.71875 -9.523438 6.53125 -9.328125 Z M 4.171875 -6.71875 "/></g></g></g></svg>